<svg xmlns="http://www.w3.org/2000/svg" viewBox="0 0 16 16" shape-rendering="crispEdges" role="img" aria-label="Bass guitar">
  <rect x="5" y="0" width="5" height="2" fill="#2a2622"/>
  <rect x="5" y="0" width="1" height="1" fill="#f2b134"/>
  <rect x="8" y="0" width="1" height="1" fill="#f2b134"/>
  <rect x="7" y="2" width="2" height="8" fill="#6d4526"/>
  <rect x="7" y="4" width="2" height="1" fill="#ddd3b6"/>
  <rect x="7" y="7" width="2" height="1" fill="#ddd3b6"/>
  <rect x="5" y="9" width="6" height="1" fill="#2a2622"/>
  <rect x="4" y="10" width="8" height="2" fill="#2a2622"/>
  <rect x="5" y="12" width="6" height="1" fill="#2a2622"/>
  <rect x="3" y="13" width="10" height="2" fill="#2a2622"/>
  <rect x="4" y="15" width="8" height="1" fill="#2a2622"/>
  <rect x="5" y="10" width="6" height="2" fill="#27aae1"/>
  <rect x="6" y="12" width="4" height="1" fill="#27aae1"/>
  <rect x="5" y="13" width="6" height="1" fill="#27aae1"/>
  <rect x="4" y="14" width="8" height="1" fill="#27aae1"/>
  <rect x="5" y="10" width="2" height="2" fill="#12718f"/>
  <rect x="4" y="14" width="2" height="1" fill="#12718f"/>
  <rect x="6" y="13" width="4" height="1" fill="#2a2622"/>
</svg>
